PERFORMER "Eric Prydz"
TITLE "Essential Mix (2005-03-13)"
FILE "2005-03-13 - EM - Armin Van Buuren.mp3" MP3
  TRACK 01 AUDIO
    TITLE "Intro"
    PERFORMER "Essential Mix"
    INDEX 01 00:00:00
  TRACK 02 AUDIO
    TITLE "Teaser"
    PERFORMER "Cirez D"
    INDEX 01 01:13:50
  TRACK 03 AUDIO
    TITLE "Starknight"
    PERFORMER "Serge Santiago"
    INDEX 01 06:46:00
  TRACK 04 AUDIO
    TITLE "My Drums"
    PERFORMER "Tomas Barfod"
    INDEX 01 13:54:00
  TRACK 05 AUDIO
    TITLE "Lollipop"
    PERFORMER "Cirez D"
    INDEX 01 18:20:00
  TRACK 06 AUDIO
    TITLE "Police On Dope (Ricky Ryan Dub Edit)"
    PERFORMER "Hardy Hard"
    INDEX 01 24:55:00
  TRACK 07 AUDIO
    TITLE "In My Hart [Re-Edit]"
    PERFORMER "Ethan "
    INDEX 01 31:34:00
  TRACK 08 AUDIO
    TITLE "Overnet"
    PERFORMER "Alex Gopher & Etienne De Crecy "
    INDEX 01 36:34:00
  TRACK 09 AUDIO
    TITLE "Infatuation (Disco Punk & Neolectric Berlin Funked Up Remix)"
    PERFORMER "Joseph Armani & Jan Fransisco"
    INDEX 01 44:12:00
  TRACK 10 AUDIO
    TITLE "Theme Park"
    PERFORMER "Mark Miroir"
    INDEX 01 49:42:00
  TRACK 11 AUDIO
    TITLE "Peace [Sebastian Ingrosso Remix]"
    PERFORMER "Tony Senghore"
    INDEX 01 55:42:00
  TRACK 12 AUDIO
    TITLE "Nile"
    PERFORMER "Pryda"
    INDEX 01 68:53:00
  TRACK 13 AUDIO
    TITLE "Behind The Wheel"
    PERFORMER "Depeche Mode"
    INDEX 01 75:12:00
  TRACK 14 AUDIO
    TITLE "ID"
    PERFORMER "Depeche Mode"
    INDEX 01 80:25:00
  TRACK 15 AUDIO
    TITLE "Together"
    PERFORMER "Axwell & Sebastian Ingrosso"
    INDEX 01 85:12:74
  TRACK 16 AUDIO
    TITLE "123"
    PERFORMER "Axer"
    INDEX 01 91:27:74
  TRACK 17 AUDIO
    TITLE "Small Change [Aaron Carl Michigan Bass Mix]"
    PERFORMER "Evan Pearson"
    INDEX 01 100:39:00
  TRACK 18 AUDIO
    TITLE "Love Song [Remix]"
    PERFORMER "Syntax"
    INDEX 01 106:26:00
  TRACK 19 AUDIO
    TITLE "1983"
    PERFORMER "Paolo Mojo"
    INDEX 01412837424 112:50:74
 